PathFileType	4	(X/Y/Z)	D:\RESEARCH\STW_dataset\Extracted\S23\S23\Mocap\trcResults\stw1.trc
DataRate	CameraRate	NumFrames	NumMarkers	Units	OrigDataRate	OrigDataStartFrame	OrigNumFrames
200.000000	200.000000	4	32	M	200.000000	665	1065
Frame#	Time	RASIS			LASIS			RPSIS			LPSIS			RTH1			RTH2			RTH3			RTH4			RFLE			LTH1			LTH2			LTH3			LTH4			LFLE			RSK1			RSK2			RSK3			RSK4			RFAL			LSK1			LSK2			LSK3			LSK4			LFAL			RFCC			RFMT1			RFMT2			RFMT5			LFCC			LFMT1			LFMT2			LFMT5			
		X1	Y1	Z1	X2	Y2	Z2	X3	Y3	Z3	X4	Y4	Z4	X5	Y5	Z5	X6	Y6	Z6	X7	Y7	Z7	X8	Y8	Z8	X9	Y9	Z9	X10	Y10	Z10	X11	Y11	Z11	X12	Y12	Z12	X13	Y13	Z13	X14	Y14	Z14	X15	Y15	Z15	X16	Y16	Z16	X17	Y17	Z17	X18	Y18	Z18	X19	Y19	Z19	X20	Y20	Z20	X21	Y21	Z21	X22	Y22	Z22	X23	Y23	Z23	X24	Y24	Z24	X25	Y25	Z25	X26	Y26	Z26	X27	Y27	Z27	X28	Y28	Z28	X29	Y29	Z29	X30	Y30	Z30	X31	Y31	Z31	X32	Y32	Z32	

666	3.325	0.04546839904785156	0.7201082153320313	-0.05927626419067378	0.03977500915527344	0.7124111328125	-0.3443719482421875	-0.117562744140625	0.7933834838867188	-0.1816987762451171	-0.1192103271484375	0.7922991943359375	-0.2330604095458984	0.01763735198974609	0.5184523315429688	-0.01191338920593259	0.0627328987121582	0.58910693359375	0.0008811646103859309	0.1467551422119141	0.5425863037109375	0.004520563602447542	0.1054728012084961	0.4703799743652344	-0.008269778251647921	0.2764314575195312	0.42675732421875	-0.009119774818420384	0.06969635772705078	0.5595635986328125	-0.4026515808105468	0.1021839904785156	0.626437255859375	-0.3734064941406249	0.192201171875	0.5795285034179688	-0.3637675476074218	0.1565461120605469	0.5076800537109375	-0.3937162170410156	0.2819286499023437	0.4115096740722656	-0.3757144165039062	0.2717086486816406	0.3489320068359375	0.006244215488433859	0.3310077209472656	0.328119873046875	-0.002758690595626811	0.3023435363769531	0.2425240478515625	-0.01312184238433836	0.2579349365234375	0.2688918151855469	0.004706461429595964	0.1904571380615235	0.05526725769042969	-0.04748233032226563	0.2378478240966797	0.2752196350097657	-0.3767713012695312	0.2973053588867188	0.2723342590332031	-0.3645086364746094	0.2856274108886719	0.1826986083984375	-0.3431922302246094	0.2290935821533203	0.1876152496337891	-0.3587025451660156	0.1931896820068359	0.03985749435424807	-0.3329178161621094	0.1482087860107422	0.02593253326416016	-0.1133770446777344	0.3511121826171875	0.02321732139587403	-0.06060603332519531	0.3268811645507813	0.02650405502319336	-0.02248584175109863	0.2832469482421875	0.01289779281616211	0.005103382110595705	0.1452786560058594	0.03014066314697268	-0.2684689331054688	0.3356055603027344	0.01798109436035158	-0.2859988098144531	0.3199803771972656	0.01958087730407717	-0.3288475341796875	0.2991960754394531	0.008269225120544456	-0.3668425903320313	
667	3.33	0.04818098449707031	0.7216592407226563	-0.05949069213867184	0.0429682731628418	0.7141699218750001	-0.3445220336914062	-0.1143798599243164	0.7954562377929688	-0.1822828063964843	-0.1162969512939453	0.7946263427734375	-0.2333774414062499	0.01952432060241699	0.5203716430664063	-0.01209179687499997	0.06474427795410156	0.590452880859375	0.0006236841082573299	0.1484688720703125	0.5436286010742187	0.00433984470367435	0.106778076171875	0.4712677307128906	-0.008493255615234346	0.27745556640625	0.4267085571289063	-0.009224494934082004	0.07228409576416016	0.5605219116210938	-0.40120947265625	0.1052097320556641	0.627544921875	-0.3733410034179687	0.1945924987792969	0.57973681640625	-0.3635853576660156	0.1588549957275391	0.5084373474121093	-0.3933172302246093	0.2834832763671875	0.4113257141113281	-0.3750731811523438	0.2724889831542969	0.3489236755371094	0.006155775070190451	0.3315125122070313	0.3280567321777344	-0.00279236364364622	0.3029256591796875	0.2422799682617187	-0.01311736774444579	0.2697759094238281	0.2751015930175781	0.01195330619812013	0.1905465850830078	0.05530727005004883	-0.04748139572143555	0.2387555694580078	0.2750179748535156	-0.3763417053222656	0.2984435119628907	0.27180712890625	-0.3637868041992188	0.2862263488769531	0.1825513000488282	-0.3427626953125	0.2298640289306641	0.1875779571533203	-0.3583985900878907	0.1932433471679688	0.03986021423339846	-0.3328155822753907	0.1483214263916016	0.02592321968078614	-0.1134176559448242	0.3510858459472656	0.02284647369384766	-0.06048765563964844	0.3267603759765625	0.02616396903991699	-0.0224054126739502	0.283130126953125	0.01271372318267822	0.005330446243286133	0.1452965698242188	0.03015219688415529	-0.2684122619628906	0.3355031127929687	0.01766530609130861	-0.2856875915527344	0.3199840087890625	0.01960681343078615	-0.3286131591796875	0.2998041381835937	0.008774694442749047	-0.3665925903320312	
668	3.335	0.05024245452880859	0.7242534790039062	-0.05886297225952145	0.04601612091064453	0.716005126953125	-0.34453515625	-0.1115324630737305	0.7980199584960938	-0.1825589904785156	-0.1131179580688477	0.7969157104492187	-0.2339486846923828	0.02099886131286621	0.5222647705078125	-0.01210485553741452	0.06702996063232422	0.591714111328125	0.0005764443278313045	0.1502831420898438	0.544262939453125	0.004237414360046421	0.1081066741943359	0.4724591979980469	-0.008554290771484346	0.2783476867675782	0.426720703125	-0.009317520141601535	0.07481076049804687	0.5616592407226563	-0.4012896423339843	0.1081555099487305	0.6285781860351562	-0.3731468811035156	0.1973556823730469	0.5803790893554688	-0.3631608581542968	0.1610300598144531	0.5090858459472656	-0.3929464721679687	0.2849948425292969	0.411131591796875	-0.3744978942871094	0.2732625122070312	0.3488662414550781	0.006150125026702902	0.3321815795898437	0.3275855407714844	-0.002801892280578593	0.3034696655273438	0.2421033325195313	-0.01309027099609374	0.2702735900878906	0.2749555969238281	0.01185843467712404	0.1906749877929688	0.05530646514892578	-0.0475216064453125	0.2397350311279297	0.2749132690429688	-0.3759127197265625	0.2993992309570312	0.271593505859375	-0.36323193359375	0.2868316650390625	0.1822979736328125	-0.3423028869628906	0.2305460052490234	0.1875551300048829	-0.3580454711914063	0.1933560333251953	0.03988791656494143	-0.3327420654296875	0.1484209899902344	0.02597800254821778	-0.1135002517700195	0.3511724853515625	0.02249572944641114	-0.0604521484375	0.3270393371582032	0.02600210762023926	-0.02226112365722656	0.2830399780273438	0.01241740131378174	0.005599875450134279	0.1452552795410156	0.03012314033508303	-0.2683854675292969	0.3356015014648437	0.01772047996520998	-0.28546875	0.319980224609375	0.01959103775024416	-0.3283290405273437	0.2998121643066406	0.009002241134643579	-0.3663235473632813	
669	3.34	0.05279954910278321	0.7261950073242187	-0.0589517555236816	0.04883428573608398	0.7178890991210938	-0.3448508605957031	-0.1084234237670898	0.8004176025390625	-0.1830937957763671	-0.1102402191162109	0.7995162963867187	-0.2342976684570312	0.02265354537963867	0.5241604003906251	-0.01255971717834469	0.0693183364868164	0.5930070190429687	0.0001607041209936505	0.1522693786621094	0.545218994140625	0.00419715261459354	0.1099769515991211	0.4736448364257813	-0.008710048675537081	0.2796268615722656	0.4268277587890625	-0.009398455619811985	0.07753527069091797	0.5630732421875	-0.4010806579589843	0.1110556106567383	0.6296528930664063	-0.3730621032714843	0.1997233123779297	0.5809593505859375	-0.3628791198730468	0.1631412963867188	0.5098672790527344	-0.3925858459472656	0.2864656066894531	0.4111503601074219	-0.3739111938476563	0.2740908203125	0.3491819152832031	0.006659795284271262	0.3328703308105469	0.3271632385253906	-0.00289720892906187	0.3039234008789062	0.2419888000488281	-0.01310507678985594	0.2708257751464844	0.2745140380859375	0.0119216938018799	0.1907883911132812	0.05526505661010742	-0.04751262283325195	0.2408092956542969	0.274963623046875	-0.3755878601074219	0.3004117736816406	0.2713659057617188	-0.3626340942382812	0.2874061279296875	0.1820039978027344	-0.3418333740234375	0.2311172790527344	0.187538070678711	-0.35774072265625	0.1933923492431641	0.03988661956787112	-0.3325862731933594	0.1485478363037109	0.02601435089111329	-0.1135046844482422	0.35129931640625	0.02195500564575196	-0.06043311309814453	0.3270582885742188	0.02569553184509277	-0.02218903160095215	0.2829520263671875	0.01223805809020996	0.005820775508880616	0.1452825927734375	0.03017009544372561	-0.2683451232910156	0.3356354675292969	0.01778650856018068	-0.285217529296875	0.3202341003417969	0.01996515846252444	-0.3280301818847656	0.2997896118164062	0.009126652717590356	-0.3660111694335937	
